<svg xmlns="http://www.w3.org/2000/svg" width="288" height="56" viewBox="0 0 288 56" fill="none"><g clip-path="url(#clip0_607_821)"><path d="M99.4617 10.6424C99.4457 9.08198 98.9684 7.56119 98.0898 6.27152C97.2113 4.98184 95.9708 3.98093 94.5245 3.39484C93.0783 2.80875 91.491 2.66367 89.9624 2.97787C88.4339 3.29207 87.0325 4.05151 85.9347 5.16055C84.8369 6.26959 84.0918 7.67865 83.7932 9.21031C83.4946 10.742 83.6559 12.3277 84.2567 13.7679C84.8575 15.2081 85.871 16.4383 87.1695 17.3037C88.4681 18.169 89.9937 18.6308 91.5542 18.6309C93.6616 18.6184 95.6779 17.7702 97.1605 16.2724C98.643 14.7747 99.4707 12.7498 99.4617 10.6424Z" fill="#921D1F"></path><path d="M96.3419 9.71724C95.7146 11.3653 95.3059 13.0884 95.1264 14.8426C95.0517 15.3221 94.9085 15.7883 94.701 16.2269C94.4241 16.8549 93.8501 16.9427 93.499 16.3755C93.1359 15.7129 92.8222 15.0245 92.5604 14.3159C92.3848 13.9175 92.2767 13.4853 92.0674 13.1139C91.7905 12.6209 91.3921 12.6142 91.0883 13.1139C90.8918 13.5047 90.7226 13.9086 90.5818 14.3226C90.3454 14.9236 90.1159 15.5246 89.8593 16.1189C89.7888 16.267 89.6902 16.4001 89.5689 16.5105C89.5075 16.5954 89.4246 16.6623 89.3286 16.7043C89.2327 16.7464 89.1273 16.762 89.0233 16.7496C88.9193 16.7372 88.8205 16.6972 88.7372 16.6338C88.6538 16.5704 88.5889 16.4859 88.5492 16.389C88.2509 15.7709 88.0504 15.1103 87.955 14.4307C87.7623 12.881 87.393 11.3585 86.8543 9.89281C86.4793 8.9168 86.411 7.84965 86.6584 6.8338C86.7001 6.55445 86.7986 6.2866 86.9479 6.04681C87.0971 5.80702 87.294 5.60037 87.5262 5.43963C87.7585 5.27889 88.0212 5.16748 88.2982 5.11226C88.5752 5.05704 88.8606 5.0592 89.1367 5.1186C89.7314 5.24375 90.3337 5.32947 90.9397 5.3752C92.6211 5.51701 93.6408 5.09834 94.8496 5.15236C95.2182 5.18601 95.5669 5.33442 95.8468 5.5767C96.1266 5.81898 96.3234 6.14292 96.4094 6.50291C96.7045 7.55756 96.681 8.67592 96.3419 9.71724Z" fill="white"></path><path d="M94.5727 10.5276C94.5727 10.7977 94.4511 10.9395 94.2013 10.9598C93.9431 10.9577 93.6853 10.9803 93.4315 11.0273C92.8665 11.0907 92.3069 11.1945 91.7568 11.338C91.5251 11.3744 91.2984 11.4378 91.0815 11.527C90.9524 11.9012 90.7426 12.2424 90.467 12.5264C90.1969 12.7966 90.0416 12.9384 90.0213 12.9654C89.4203 13.2152 89.0827 13.3098 89.0016 13.2422C88.9206 13.1747 88.9544 13.0059 89.2042 12.7763C89.3123 12.5872 89.4068 12.4994 89.4878 12.5264C89.5309 12.5411 89.5718 12.5615 89.6094 12.5872C89.7606 12.4801 89.8872 12.342 89.9808 12.1821C90.0349 12.0599 90.1029 11.9443 90.1834 11.8377C89.9605 11.8984 89.7714 11.966 89.6094 12.0267C89.4473 12.0875 89.3663 12.128 89.3663 12.1483C89.2649 12.1792 89.1584 12.1897 89.053 12.1793C88.9475 12.1689 88.8451 12.1377 88.7518 12.0875C88.5897 11.9862 88.4682 11.8984 88.3871 11.8377C88.144 11.5878 88.09 11.419 88.2251 11.338C88.3492 11.2662 88.4875 11.2225 88.6302 11.2097C88.966 11.1386 89.294 11.0345 89.6094 10.899C90.0083 10.7069 90.3901 10.481 90.7506 10.2238C90.8046 10.1247 90.7776 10.0842 90.6696 10.1022C90.5149 10.1484 90.3752 10.2346 90.2644 10.3521C90.0804 10.4657 89.8658 10.5199 89.6499 10.5074C89.5585 10.4987 89.4704 10.4685 89.3929 10.4192C89.3155 10.3699 89.2508 10.3029 89.2042 10.2238C89.1752 10.1377 89.1639 10.0468 89.1708 9.95627C89.1778 9.86577 89.2029 9.7776 89.2447 9.69704C89.2634 9.63962 89.3028 9.59123 89.3553 9.56127C89.4077 9.53131 89.4694 9.52194 89.5284 9.53497C89.6313 9.43475 89.7395 9.34008 89.8525 9.25135C89.9247 9.18873 90.0069 9.13852 90.0956 9.10279C89.9193 8.78982 89.7961 8.44984 89.7309 8.09663C89.6499 7.70497 89.6094 7.49563 89.6094 7.47537C89.3393 7.09722 89.3258 6.88113 89.5689 6.80009C89.9696 6.74758 90.3771 6.80113 90.7506 6.95541C91.1017 7.07696 91.2571 7.22552 91.203 7.39434C91.141 7.57445 91.127 7.76765 91.1625 7.95482C91.2165 7.95482 91.2436 7.9143 91.2436 7.83327C91.2436 7.74548 91.3246 7.70497 91.4867 7.70497C91.5601 7.61278 91.6151 7.50732 91.6487 7.39434L91.7298 7.26604C91.6004 7.27304 91.4713 7.24841 91.3537 7.19428C91.236 7.14016 91.1333 7.05817 91.0545 6.95541C90.9194 6.74607 91.014 6.63803 91.3449 6.63803C91.6365 6.6189 91.9234 6.55513 92.1957 6.44895C92.3354 6.39965 92.4839 6.38019 92.6317 6.39182C92.7794 6.40345 92.923 6.44592 93.0533 6.51648C93.4652 6.66504 93.6543 6.82711 93.6273 7.01618C93.5714 7.17893 93.4554 7.31419 93.3032 7.39434C93.198 7.45443 93.1005 7.52699 93.0128 7.61043C92.8777 7.73198 92.8102 7.80626 92.8102 7.83327C92.9993 8.01785 93.0263 8.17316 92.8912 8.29921C92.7905 8.35886 92.679 8.39793 92.5631 8.41416C92.4472 8.43039 92.3292 8.42345 92.216 8.39375C91.9685 8.42028 91.7228 8.46086 91.4799 8.5153C91.3273 8.53049 91.1844 8.59717 91.0747 8.70438C91.0747 8.78541 91.1153 8.80567 91.1963 8.76515C91.2773 8.72464 91.3719 8.82593 91.4799 9.08253C91.7945 8.93657 92.1224 8.82125 92.4591 8.73814C92.5901 8.71851 92.7238 8.72768 92.8509 8.765C92.978 8.80231 93.0955 8.86689 93.1951 8.95423C93.3842 9.12305 93.3032 9.33239 92.9453 9.58224C92.5836 9.83768 92.202 10.0635 91.804 10.2575C91.8581 10.3048 92.0741 10.2575 92.4793 10.1967L93.6205 9.94689C93.7124 9.93072 93.8067 9.93378 93.8973 9.95586C93.988 9.97795 94.0731 10.0186 94.1472 10.0752C94.3327 10.1781 94.4814 10.3362 94.5727 10.5276Z" fill="#921D1F"></path><path d="M84.6596 30.8197C82.3164 28.2199 77.1167 25.0934 76.6508 25.0934C76.1849 25.0934 72.3493 27.3353 72.0859 27.5784C71.8226 27.8215 71.7821 31.7313 71.7483 33.4398C71.7436 33.6584 71.665 33.8689 71.5251 34.0369C71.3853 34.205 71.1926 34.3206 70.9785 34.3649C67.7169 35.0402 54.8866 37.5252 51.1118 37.9236H50.8619C49.3358 34.8781 49.6937 31.0696 51.1591 23.6888C52.8743 15.0317 53.4753 13.5191 52.8135 10.1832C52.6042 9.19056 44.5278 1.21553 41.192 0.202616C37.8561 -0.810301 33.2237 2.22845 32.4134 3.70731C31.603 5.18616 34.2434 6.83384 34.8309 8.07635C35.4184 9.31886 35.3373 13.6879 34.7903 20.0895C32.5282 37.5185 36.6676 38.6462 36.6676 38.6462C34.4054 32.2918 37.0525 23.4389 36.6676 12.6007C36.6676 12.6007 37.3429 13.3098 37.3429 19.421C37.3429 22.534 37.1403 25.6336 36.8364 28.7331C36.2084 35.0402 37.4712 38.5651 38.268 40.098C33.3182 41.0164 28.3887 41.9483 26.1873 42.3805C26.0489 42.4005 25.9079 42.3929 25.7724 42.3582C25.637 42.3235 25.5097 42.2623 25.398 42.1782C25.2863 42.0941 25.1923 41.9887 25.1215 41.8681C25.0506 41.7475 25.0044 41.6141 24.9853 41.4756C24.8183 40.0787 24.3181 38.7424 23.5267 37.5792C20.1503 32.4606 12.7628 29.2666 9.86584 28.1726C9.48495 28.0274 9.07233 27.9859 8.67014 28.0523C8.26795 28.1187 7.8906 28.2908 7.57665 28.5508C6.65152 29.3206 5.55082 30.5361 6.04377 31.6098C6.86086 33.3655 4.69322 39.5105 0.958931 44.2442C-1.21546 47.4585 0.661809 48.046 3.76133 50.0921C6.86086 52.1382 10.8045 56.0008 14.3294 53.1917L13.8567 54.4207C13.8567 54.4207 15.5247 56.4465 17.7801 54.2451C19.8059 52.2868 20.3934 52.0639 20.3934 52.0639C20.3934 52.0639 39.0311 44.8115 70.5328 44.0281C72.2615 44.2172 72.4978 45.1829 72.4978 45.1829L72.93 44.0281C72.93 44.0281 72.93 52.172 73.3757 53.7454C73.5588 54.6245 74.0587 55.4055 74.7803 55.94C75.6041 54.9564 76.4929 54.0292 77.4409 53.1646C79.2574 51.7601 81.5668 46.2971 82.6743 45.6758L78.7577 53.1917C78.7577 53.1917 85.8346 45.7636 87.2932 38.0452C87.354 35.3441 86.969 33.4195 84.6326 30.8197M28.7399 48.62C26.0387 49.1062 23.2904 50.2272 20.6365 50.5581C21.835 49.834 23.1378 49.2987 24.4991 48.9712C28.5027 47.7856 32.5847 46.883 36.7149 46.2701C42.2049 45.426 47.7354 44.8317 53.2727 44.4941C45.3247 45.5948 36.5393 46.763 28.7399 48.62ZM73.2677 35.9923C72.9581 33.526 72.9581 31.0306 73.2677 28.5643C73.3487 30.9953 73.2677 33.5343 73.2677 35.9923Z" fill="white"></path><path d="M117.417 11.635V22.3382H121.692V25.3567H113.852V11.635H117.417Z" fill="white"></path><path d="M126.878 11.635V25.3567H123.312V11.635H126.878Z" fill="white"></path><path d="M135.123 14.6603V25.3567H131.558V14.6603H128.607V11.635H138.061V14.6603H135.123Z" fill="white"></path><path d="M145.279 14.6603V25.3567H141.707V14.6603H138.763V11.635H148.217V14.6603H145.279Z" fill="white"></path><path d="M153.538 11.635V22.3382H157.812V25.3567H149.972V11.635H153.538Z" fill="white"></path><path d="M167.239 14.6603H162.999V16.9494H167.05V19.9747H162.999V22.3382H167.239V25.3567H159.433V11.635H167.239V14.6603Z" fill="white"></path><path d="M175.775 25.3567L178.104 11.635H181.65L184.432 18.9685L187.383 11.635H190.935L193.008 25.3567H189.442L188.402 17.4627L185.107 25.3567H183.676L180.529 17.4627H180.488L179.347 25.3567H175.775Z" fill="white"></path><path d="M198.12 12.0673C199.271 11.4856 200.544 11.1826 201.834 11.1826C203.124 11.1826 204.396 11.4856 205.548 12.0673C206.689 12.6426 207.657 13.5121 208.35 14.5861C209.062 15.6682 209.436 16.9375 209.424 18.2326C209.424 20.2456 208.624 22.1762 207.201 23.5996C205.777 25.023 203.847 25.8227 201.834 25.8227C199.821 25.8227 197.89 25.023 196.467 23.5996C195.043 22.1762 194.244 20.2456 194.244 18.2326C194.229 16.9329 194.603 15.6585 195.317 14.5726C196.014 13.5051 196.981 12.6408 198.12 12.0673ZM204.562 15.7341C203.827 15.0323 202.85 14.6407 201.834 14.6407C200.818 14.6407 199.841 15.0323 199.106 15.7341C198.746 16.0497 198.458 16.4381 198.26 16.8735C198.062 17.3089 197.959 17.7813 197.958 18.2596C197.942 18.7974 198.034 19.333 198.227 19.835C198.421 20.337 198.713 20.7955 199.085 21.1835C199.44 21.5549 199.867 21.8505 200.339 22.0525C200.812 22.2544 201.32 22.3585 201.834 22.3585C202.348 22.3585 202.856 22.2544 203.328 22.0525C203.801 21.8505 204.227 21.5549 204.582 21.1835C204.958 20.7923 205.252 20.3294 205.446 19.8225C205.639 19.3156 205.729 18.7749 205.71 18.2326C205.705 17.7589 205.6 17.2916 205.402 16.8612C205.204 16.4307 204.918 16.0467 204.562 15.7341Z" fill="white"></path><path d="M219.87 11.635H223.436V19.3534C223.453 20.2967 223.365 21.2389 223.173 22.1626C222.987 22.9379 222.578 23.642 221.998 24.1884C220.964 25.2081 219.452 25.7146 217.446 25.7146C215.441 25.7146 213.928 25.2081 212.902 24.1884C212.321 23.642 211.913 22.9379 211.727 22.1626C211.535 21.2389 211.446 20.2967 211.463 19.3534V11.635H215.029V18.8605C215.029 19.2994 215.029 19.6641 215.029 19.9544C215.055 20.2848 215.109 20.6123 215.191 20.9336C215.26 21.2486 215.391 21.5469 215.576 21.8114C215.765 22.0522 216.011 22.2424 216.291 22.3652C216.646 22.5235 217.031 22.6019 217.419 22.5948C217.808 22.6034 218.193 22.525 218.547 22.3652C218.829 22.2424 219.077 22.0523 219.269 21.8114C219.452 21.5464 219.58 21.2481 219.648 20.9336C219.734 20.6132 219.791 20.2854 219.816 19.9544C219.816 19.6641 219.816 19.2792 219.816 18.8605L219.87 11.635Z" fill="white"></path><path d="M226.144 25.3567V11.635H229.716L236.246 20.0287V11.635H239.818V25.3567H236.28L229.75 16.9494H229.716V25.3567H226.144Z" fill="white"></path><path d="M248.09 14.6603V25.3567H244.525V14.6603H241.581V11.635H251.034V14.6603H248.09Z" fill="white"></path><path d="M260.103 22.9595H255.187L254.242 25.3432H250.46L255.734 11.6216H259.631L264.797 25.3432H260.995L260.103 22.9595ZM259.138 20.2584L257.686 15.8893H257.645L256.173 20.2584H259.138Z" fill="white"></path><path d="M269.929 11.635V25.3567H266.363V11.635H269.929Z" fill="white"></path><path d="M272.711 25.3567V11.635H276.283L282.813 20.0287H282.847V11.635H286.419V25.3567H282.847L276.317 16.9494H276.283V25.3567H272.711Z" fill="white"></path><path d="M126.594 45.399C126.594 51.7061 124.812 53.5833 119.794 53.5833C117.39 53.5833 115.425 53.4888 113.602 53.374V37.4172C115.425 37.3024 117.37 37.2146 119.794 37.2146C124.812 37.2146 126.594 39.0851 126.594 45.399ZM122.894 45.399C122.894 41.2122 122.178 39.963 119.794 39.963C118.781 39.963 117.924 39.963 117.093 39.963V50.7674C117.904 50.7674 118.808 50.7674 119.794 50.7674C122.178 50.8079 122.901 49.5789 122.901 45.399H122.894Z" fill="white"></path><path d="M140.12 53.2119C137.946 53.4415 135.197 53.4415 132.692 53.4415C130.565 53.4415 129.201 52.1922 129.181 50.2272V40.5639C129.181 38.5989 130.531 37.3496 132.692 37.3496C135.17 37.3496 137.919 37.3496 140.12 37.5792L139.958 40.1925H133.827C133.064 40.1925 132.746 40.5437 132.746 41.3743V43.7985H139.107V46.3443H132.753V49.4168C132.753 50.2744 133.07 50.6256 133.833 50.6256H139.965L140.12 53.2119Z" fill="white"></path><path d="M156.138 52.1045C156.157 52.273 156.139 52.4437 156.083 52.6039C156.027 52.764 155.935 52.9094 155.815 53.029C155.695 53.1487 155.549 53.2395 155.388 53.2945C155.228 53.3496 155.057 53.3675 154.889 53.347H152.694C151.958 53.347 151.634 53.0026 151.283 52.307L147.103 43.7985C146.702 43.0047 146.376 42.175 146.13 41.3203H145.86C145.971 42.1643 146.025 43.0148 146.022 43.8661V53.347H142.646V38.6934C142.623 38.521 142.639 38.3455 142.695 38.1805C142.75 38.0156 142.843 37.8656 142.966 37.7422C143.089 37.6189 143.238 37.5254 143.403 37.469C143.567 37.4126 143.743 37.3949 143.915 37.4172H146.063C146.805 37.4172 147.13 37.7683 147.474 38.4571L151.526 46.7157C151.877 47.391 152.316 48.3769 152.687 49.2818H152.917C152.849 48.3769 152.775 47.4991 152.775 46.5807V37.4172H156.104L156.138 52.1045Z" fill="white"></path><path d="M166.496 40.287V53.3469H162.958V40.287H158.231V37.4171H171.291V40.287H166.496Z" fill="white"></path><path d="M175.147 49.1872L173.985 53.3469H170.379L174.985 38.3152C175.052 38.0448 175.211 37.8055 175.433 37.6373C175.655 37.469 175.928 37.3818 176.207 37.3901H179.536C179.817 37.3776 180.093 37.4631 180.317 37.6319C180.541 37.8007 180.7 38.0423 180.765 38.3152L185.364 53.3469H181.778L180.623 49.1602L175.147 49.1872ZM178.523 41.5836C178.408 41.0974 178.273 40.5639 178.206 40.0777H177.598L177.254 41.5836L175.903 46.4591H179.881L178.523 41.5836Z" fill="white"></path><path d="M190.496 49.329C190.496 50.1596 190.84 50.504 191.745 50.504H197.222L197.384 53.2051C195.139 53.4057 192.885 53.4891 190.631 53.455C188.058 53.455 186.978 52.0234 186.978 50.0786V37.4171H190.489L190.496 49.329Z" fill="white"></path><path d="M214.84 37.6738L214.543 40.3074C213.037 40.2196 212.064 40.1926 210.052 40.1926C207.742 40.1926 207.047 41.3743 207.047 45.399C207.047 49.4236 207.722 50.5986 210.052 50.5986C211.66 50.6401 213.269 50.5702 214.867 50.3893L215.164 53.0026C213.509 53.5094 211.782 53.7376 210.052 53.6779C205.129 53.6779 203.346 51.5035 203.346 45.426C203.346 39.3485 205.129 37.1403 210.052 37.1403C211.665 37.0872 213.278 37.2669 214.84 37.6738Z" fill="white"></path><path d="M228.244 53.2119C226.076 53.4415 223.321 53.4415 220.816 53.4415C218.689 53.4415 217.325 52.1922 217.298 50.2272V40.5639C217.298 38.5989 218.689 37.3496 220.816 37.3496C223.287 37.3496 226.042 37.3496 228.244 37.5792L228.089 40.1925H221.957C221.194 40.1925 220.87 40.5437 220.87 41.3743V43.7985H227.231V46.3443H220.87V49.4168C220.87 50.2744 221.194 50.6256 221.957 50.6256H228.089L228.244 53.2119Z" fill="white"></path><path d="M244.248 52.1044C244.268 52.2729 244.249 52.4437 244.193 52.6038C244.137 52.764 244.045 52.9094 243.925 53.029C243.805 53.1486 243.659 53.2394 243.498 53.2945C243.338 53.3495 243.167 53.3675 242.999 53.3469H240.804C240.061 53.3469 239.737 53.0025 239.393 52.307L235.206 43.7985C234.807 43.0045 234.484 42.1747 234.24 41.3202H233.984C234.095 42.1642 234.149 43.0147 234.146 43.866V53.3469H230.769V38.6934C230.747 38.5205 230.765 38.3449 230.822 38.1801C230.878 38.0152 230.971 37.8654 231.095 37.7422C231.218 37.619 231.368 37.5256 231.532 37.4693C231.697 37.4129 231.873 37.3951 232.046 37.4171H234.193C234.936 37.4171 235.26 37.7683 235.604 38.457L239.656 46.7157C240.007 47.391 240.446 48.3769 240.811 49.2817H241.074C241 48.3769 240.932 47.499 240.932 46.5806V37.4171H244.261L244.248 52.1044Z" fill="white"></path><path d="M254.58 40.287V53.3469H251.068V40.287H246.308V37.4171H259.367V40.287H254.58Z" fill="white"></path><path d="M270.28 53.347L269.078 48.4648C269.055 48.2635 268.993 48.0688 268.895 47.8917C268.796 47.7147 268.664 47.5589 268.505 47.4333C268.346 47.3078 268.164 47.2149 267.969 47.1601C267.774 47.1054 267.57 47.0897 267.369 47.1142H264.891V53.347H261.427V37.4172C263.448 37.2415 265.477 37.1739 267.505 37.2146C271.671 37.2146 273.4 38.2748 273.4 41.9416C273.4 44.1835 272.616 45.6151 270.347 45.8987V46.0135C270.923 46.1402 271.447 46.4373 271.852 46.866C272.257 47.2948 272.523 47.8354 272.616 48.4175L274.007 53.347H270.28ZM267.41 44.4266C269.26 44.4266 269.814 43.9134 269.814 42.1577C269.814 40.4019 269.26 39.9157 267.41 39.9157H264.864V44.4063L267.41 44.4266Z" fill="white"></path><path d="M287.088 53.2119C284.913 53.4415 282.165 53.4415 279.66 53.4415C277.539 53.4415 276.175 52.1922 276.148 50.2272V40.5639C276.148 38.5989 277.539 37.3496 279.66 37.3496C282.138 37.3496 284.886 37.3496 287.088 37.5792L286.925 40.1925H280.801C280.038 40.1925 279.714 40.5437 279.714 41.3743V43.7985H286.075V46.3443H279.714V49.4168C279.714 50.2744 280.038 50.6256 280.801 50.6256H286.925L287.088 53.2119Z" fill="white"></path></g><defs><clipPath id="clip0_607_821"><rect width="287.088" height="55.94" fill="white"></rect></clipPath></defs></svg>