<svg xmlns="http://www.w3.org/2000/svg" width="221" height="43" viewBox="0 0 221 43" fill="none"><g clip-path="url(#clip0_607_942)"><path d="M76.2586 8.1596C76.2463 6.96322 75.8803 5.79721 75.2067 4.80839C74.5331 3.81958 73.582 3.05217 72.4732 2.6028C71.3643 2.15344 70.1473 2.0422 68.9754 2.28311C67.8034 2.52401 66.729 3.10628 65.8873 3.9566C65.0456 4.80692 64.4743 5.88726 64.2453 7.0616C64.0164 8.23594 64.14 9.45177 64.6007 10.556C65.0613 11.6602 65.8384 12.6034 66.834 13.2669C67.8296 13.9304 68.9993 14.2845 70.1958 14.2845C71.8116 14.2749 73.3575 13.6246 74.4942 12.4762C75.6309 11.3279 76.2655 9.77539 76.2586 8.1596Z" fill="#921D1F"></path><path d="M73.8666 7.45043C73.3856 8.71399 73.0723 10.0351 72.9346 11.3801C72.8774 11.7477 72.7675 12.1052 72.6085 12.4415C72.3962 12.923 71.9561 12.9903 71.6869 12.5554C71.4085 12.0474 71.168 11.5196 70.9672 10.9763C70.8326 10.6708 70.7498 10.3394 70.5893 10.0547C70.377 9.67674 70.0715 9.67156 69.8385 10.0547C69.6879 10.3543 69.5582 10.664 69.4502 10.9815C69.269 11.4422 69.093 11.903 68.8962 12.3587C68.8422 12.4723 68.7666 12.5743 68.6736 12.6589C68.6265 12.724 68.563 12.7753 68.4894 12.8075C68.4159 12.8398 68.335 12.8518 68.2553 12.8422C68.1756 12.8327 68.0998 12.8021 68.0359 12.7535C67.972 12.7049 67.9223 12.6401 67.8918 12.5658C67.6631 12.0919 67.5094 11.5854 67.4362 11.0643C67.2884 9.87616 67.0053 8.70883 66.5923 7.58505C66.3048 6.83673 66.2524 6.01853 66.4421 5.23966C66.4741 5.02548 66.5496 4.82012 66.664 4.63626C66.7785 4.45241 66.9294 4.29397 67.1075 4.17073C67.2855 4.04749 67.487 3.96207 67.6994 3.91973C67.9117 3.87739 68.1305 3.87905 68.3422 3.92459C68.7982 4.02054 69.26 4.08627 69.7246 4.12133C71.0138 4.23006 71.7956 3.90906 72.7224 3.95048C73.005 3.97628 73.2724 4.09007 73.4869 4.27582C73.7015 4.46158 73.8524 4.70995 73.9184 4.98597C74.1446 5.79458 74.1266 6.65204 73.8666 7.45043Z" fill="white"></path><path d="M72.5102 8.07168C72.5102 8.27878 72.417 8.38751 72.2254 8.40304C72.0275 8.40145 71.8298 8.41879 71.6352 8.45482C71.202 8.50339 70.7729 8.58298 70.3512 8.69298C70.1735 8.72088 69.9997 8.76954 69.8334 8.83795C69.7344 9.1248 69.5736 9.38639 69.3623 9.60421C69.1552 9.81131 69.0361 9.92003 69.0206 9.94074C68.5598 10.1323 68.3009 10.2048 68.2388 10.153C68.1766 10.1012 68.2025 9.97181 68.3941 9.79577C68.4769 9.65081 68.5494 9.5835 68.6116 9.60421C68.6446 9.61543 68.6759 9.6311 68.7047 9.65081C68.8207 9.56868 68.9177 9.46277 68.9895 9.34016C69.031 9.2465 69.0831 9.1579 69.1448 9.07611C68.974 9.12271 68.829 9.17448 68.7047 9.22108C68.5805 9.26767 68.5184 9.29874 68.5184 9.31427C68.4406 9.33796 68.359 9.34603 68.2781 9.33804C68.1973 9.33004 68.1188 9.30613 68.0472 9.26767C67.9229 9.19001 67.8298 9.12271 67.7676 9.07611C67.5812 8.88454 67.5398 8.75511 67.6434 8.69298C67.7385 8.63799 67.8445 8.60442 67.954 8.59461C68.2115 8.5401 68.4629 8.46032 68.7047 8.35644C69.0106 8.20912 69.3034 8.03591 69.5797 7.8387C69.6212 7.76276 69.6004 7.7317 69.5176 7.7455C69.399 7.78095 69.2919 7.84702 69.207 7.93707C69.0659 8.02419 68.9014 8.06577 68.7358 8.05615C68.6657 8.0495 68.5982 8.02633 68.5388 7.98853C68.4794 7.95073 68.4298 7.89938 68.3941 7.8387C68.3719 7.77275 68.3632 7.703 68.3685 7.63361C68.3738 7.56423 68.3931 7.49663 68.4252 7.43486C68.4395 7.39084 68.4697 7.35373 68.5099 7.33076C68.5501 7.30779 68.5974 7.30061 68.6426 7.3106C68.7215 7.23376 68.8045 7.16117 68.8911 7.09315C68.9465 7.04513 69.0095 7.00664 69.0775 6.97924C68.9424 6.73928 68.8479 6.47861 68.7979 6.2078C68.7358 5.90751 68.7047 5.74701 68.7047 5.73148C68.4976 5.44154 68.4873 5.27586 68.6737 5.21373C68.9809 5.17346 69.2933 5.21452 69.5797 5.33281C69.849 5.42601 69.968 5.53991 69.9266 5.66935C69.879 5.80744 69.8683 5.95557 69.8956 6.09907C69.937 6.09907 69.9577 6.06801 69.9577 6.00588C69.9577 5.93857 70.0198 5.90751 70.1441 5.90751C70.2004 5.83683 70.2426 5.75597 70.2683 5.66935L70.3305 5.57098C70.2313 5.57634 70.1323 5.55746 70.0421 5.51596C69.9519 5.47446 69.8732 5.4116 69.8127 5.33281C69.7092 5.17231 69.7817 5.08947 70.0354 5.08947C70.2589 5.07481 70.4789 5.02591 70.6877 4.9445C70.7948 4.90671 70.9087 4.89178 71.022 4.9007C71.1352 4.90962 71.2453 4.94218 71.3452 4.99628C71.6611 5.11018 71.806 5.23444 71.7853 5.37941C71.7425 5.50419 71.6536 5.6079 71.5368 5.66935C71.4562 5.71542 71.3815 5.77105 71.3142 5.83503C71.2106 5.92822 71.1589 5.98517 71.1589 6.00588C71.3038 6.1474 71.3245 6.26648 71.221 6.36312C71.1438 6.40886 71.0583 6.43881 70.9694 6.45126C70.8805 6.4637 70.79 6.45838 70.7032 6.43561C70.5135 6.45595 70.3251 6.48706 70.1389 6.5288C70.0219 6.54045 69.9123 6.59158 69.8282 6.67377C69.8282 6.7359 69.8593 6.75143 69.9214 6.72037C69.9836 6.6893 70.0561 6.76697 70.1389 6.96371C70.3801 6.8518 70.6315 6.76338 70.8896 6.69966C70.9901 6.68461 71.0926 6.69164 71.1901 6.72025C71.2875 6.74886 71.3776 6.79837 71.454 6.86534C71.5989 6.99477 71.5368 7.15527 71.2624 7.34684C70.9852 7.54269 70.6925 7.71583 70.3874 7.86459C70.4288 7.90083 70.5945 7.86459 70.9052 7.81799L71.7801 7.62642C71.8506 7.61403 71.9229 7.61637 71.9924 7.6333C72.0619 7.65023 72.1271 7.68139 72.184 7.72479C72.3261 7.8037 72.4402 7.92495 72.5102 8.07168Z" fill="#921D1F"></path><path d="M64.9096 23.6299C63.1131 21.6366 59.1264 19.2394 58.7692 19.2394C58.4119 19.2394 55.4712 20.9583 55.2692 21.1447C55.0673 21.3311 55.0362 24.3289 55.0104 25.6388C55.0068 25.8063 54.9465 25.9678 54.8393 26.0966C54.732 26.2255 54.5843 26.3141 54.4201 26.3481C51.9194 26.8658 42.0823 28.7711 39.1881 29.0766H38.9965C37.8264 26.7416 38.1008 23.8215 39.2243 18.1625C40.5394 11.525 41.0002 10.3653 40.4928 7.80762C40.3323 7.04654 34.1401 0.931966 31.5824 0.155348C29.0247 -0.621269 25.473 1.70858 24.8517 2.84245C24.2304 3.97631 26.2548 5.2396 26.7052 6.19226C27.1557 7.14491 27.0935 10.4947 26.6742 15.4029C24.9397 28.7659 28.1135 29.6306 28.1135 29.6306C26.3791 24.7586 28.4086 17.971 28.1135 9.66115C28.1135 9.66115 28.6312 10.2048 28.6312 14.8904C28.6312 17.2772 28.4759 19.6536 28.2429 22.0301C27.7614 26.8658 28.7296 29.5684 29.3406 30.7437C25.5455 31.4479 21.7659 32.1623 20.0781 32.4937C19.972 32.509 19.8639 32.5032 19.76 32.4766C19.6561 32.45 19.5586 32.4031 19.4729 32.3386C19.3873 32.2741 19.3152 32.1933 19.2609 32.1009C19.2066 32.0084 19.1711 31.9061 19.1565 31.7999C19.0285 30.7289 18.645 29.7043 18.0382 28.8125C15.4495 24.888 9.78533 22.4391 7.5642 21.6004C7.27217 21.489 6.9558 21.4572 6.64744 21.5081C6.33907 21.559 6.04975 21.6909 5.80905 21.8903C5.09974 22.4805 4.25581 23.4125 4.63376 24.2357C5.26024 25.5818 3.59827 30.2933 0.735144 33.9227C-0.931995 36.3871 0.507336 36.8376 2.88379 38.4064C5.26024 39.9751 8.28387 42.9366 10.9865 40.7828L10.6241 41.7251C10.6241 41.7251 11.9029 43.2783 13.6322 41.5905C15.1854 40.089 15.6358 39.9182 15.6358 39.9182C15.6358 39.9182 29.9256 34.3576 54.0784 33.757C55.4038 33.902 55.5851 34.6423 55.5851 34.6423L55.9164 33.757C55.9164 33.757 55.9164 40.001 56.2581 41.2074C56.3985 41.8814 56.7818 42.4802 57.335 42.89C57.9666 42.1359 58.6481 41.425 59.375 40.7621C60.7677 39.6852 62.5384 35.4966 63.3875 35.0203L60.3846 40.7828C60.3846 40.7828 65.8105 35.0876 66.9289 29.1698C66.9754 27.0988 66.6803 25.6232 64.8889 23.6299M22.0352 37.2777C19.9642 37.6504 17.857 38.5099 15.8222 38.7636C16.7411 38.2084 17.74 37.7981 18.7837 37.5469C21.8533 36.6379 24.9831 35.9459 28.1497 35.4759C32.359 34.8287 36.5993 34.3731 40.8449 34.1142C34.751 34.9582 28.0151 35.8539 22.0352 37.2777ZM56.1753 27.5958C55.938 25.7049 55.938 23.7916 56.1753 21.9006C56.2374 23.7645 56.1753 25.7112 56.1753 27.5958Z" fill="#E7BD7B"></path><path d="M90.0254 8.92065V17.1269H93.3028V19.4412H87.2917V8.92065H90.0254Z" fill="#606060"></path><path d="M97.2791 8.92065V19.4412H94.5454V8.92065H97.2791Z" fill="#606060"></path><path d="M103.601 11.2402V19.4412H100.867V11.2402H98.6045V8.92065H105.853V11.2402H103.601Z" fill="#606060"></path><path d="M111.388 11.2402V19.4412H108.649V11.2402H106.391V8.92065H113.64V11.2402H111.388Z" fill="#606060"></path><path d="M117.72 8.92065V17.1269H120.997V19.4412H114.986V8.92065H117.72Z" fill="#606060"></path><path d="M128.225 11.2402H124.973V12.9953H128.08V15.3148H124.973V17.1269H128.225V19.4412H122.24V8.92065H128.225V11.2402Z" fill="#606060"></path><path d="M134.769 19.4412L136.555 8.92065H139.273L141.407 14.5434L143.669 8.92065H146.392L147.982 19.4412H145.248L144.451 13.3888L141.924 19.4412H140.827L138.414 13.3888H138.383L137.508 19.4412H134.769Z" fill="#606060"></path><path d="M151.901 9.25203C152.784 8.80607 153.76 8.57373 154.749 8.57373C155.738 8.57373 156.713 8.80607 157.596 9.25203C158.472 9.69315 159.213 10.3598 159.745 11.1832C160.291 12.0129 160.577 12.9861 160.568 13.979C160.568 15.5225 159.955 17.0027 158.864 18.094C157.772 19.1854 156.292 19.7985 154.749 19.7985C153.205 19.7985 151.725 19.1854 150.634 18.094C149.542 17.0027 148.929 15.5225 148.929 13.979C148.918 12.9826 149.205 12.0055 149.752 11.1729C150.287 10.3544 151.028 9.69173 151.901 9.25203ZM156.84 12.0634C156.277 11.5253 155.528 11.2251 154.749 11.2251C153.97 11.2251 153.22 11.5253 152.657 12.0634C152.382 12.3054 152.161 12.6032 152.009 12.937C151.857 13.2708 151.778 13.6331 151.777 13.9997C151.765 14.4121 151.835 14.8227 151.984 15.2076C152.132 15.5926 152.356 15.944 152.641 16.2416C152.914 16.5263 153.241 16.753 153.603 16.9078C153.965 17.0626 154.355 17.1425 154.749 17.1425C155.143 17.1425 155.532 17.0626 155.895 16.9078C156.257 16.753 156.584 16.5263 156.856 16.2416C157.144 15.9416 157.369 15.5867 157.518 15.1981C157.666 14.8094 157.735 14.3949 157.721 13.979C157.716 13.6159 157.636 13.2576 157.484 12.9276C157.333 12.5975 157.113 12.3031 156.84 12.0634Z" fill="#606060"></path><path d="M168.578 8.92065H171.311V14.8385C171.324 15.5617 171.257 16.2841 171.11 16.9923C170.967 17.5868 170.654 18.1266 170.209 18.5455C169.416 19.3273 168.257 19.7156 166.719 19.7156C165.181 19.7156 164.022 19.3273 163.235 18.5455C162.789 18.1266 162.476 17.5868 162.334 16.9923C162.187 16.2841 162.119 15.5617 162.132 14.8385V8.92065H164.866V14.4605C164.866 14.7971 164.866 15.0766 164.866 15.2993C164.886 15.5526 164.927 15.8037 164.99 16.05C165.043 16.2916 165.143 16.5203 165.285 16.7231C165.43 16.9077 165.619 17.0535 165.834 17.1476C166.106 17.269 166.401 17.3291 166.698 17.3237C166.996 17.3303 167.292 17.2702 167.563 17.1476C167.78 17.0535 167.97 16.9077 168.117 16.7231C168.257 16.5199 168.355 16.2912 168.407 16.05C168.473 15.8043 168.517 15.553 168.536 15.2993C168.536 15.0766 168.536 14.7815 168.536 14.4605L168.578 8.92065Z" fill="#606060"></path><path d="M173.388 19.4412V8.92065H176.126L181.133 15.3562V8.92065H183.872V19.4412H181.159L176.152 12.9953H176.126V19.4412H173.388Z" fill="#606060"></path><path d="M190.214 11.2402V19.4412H187.481V11.2402H185.223V8.92065H192.472V11.2402H190.214Z" fill="#606060"></path><path d="M199.425 17.6033H195.656L194.931 19.431H192.032L196.075 8.9104H199.063L203.023 19.431H200.108L199.425 17.6033ZM198.685 15.5324L197.571 12.1826H197.54L196.412 15.5324H198.685Z" fill="#606060"></path><path d="M206.958 8.92065V19.4412H204.224V8.92065H206.958Z" fill="#606060"></path><path d="M209.091 19.4412V8.92065H211.83L216.837 15.3562H216.863V8.92065H219.602V19.4412H216.863L211.856 12.9953H211.83V19.4412H209.091Z" fill="#606060"></path><path d="M97.0616 34.808C97.0616 39.6438 95.6948 41.0831 91.8479 41.0831C90.0048 41.0831 88.4981 41.0106 87.1002 40.9226V28.6883C88.4981 28.6003 89.9892 28.533 91.8479 28.533C95.6948 28.533 97.0616 29.9671 97.0616 34.808ZM94.2244 34.808C94.2244 31.598 93.6756 30.6402 91.8479 30.6402C91.0713 30.6402 90.4138 30.6402 89.777 30.6402V38.9241C90.3983 38.9241 91.092 38.9241 91.8479 38.9241C93.6756 38.9552 94.2296 38.0129 94.2296 34.808H94.2244Z" fill="#C3A784"></path><path d="M107.432 40.7983C105.765 40.9743 103.658 40.9743 101.737 40.9743C100.106 40.9743 99.0601 40.0165 99.0446 38.5099V31.1009C99.0446 29.5943 100.08 28.6365 101.737 28.6365C103.637 28.6365 105.744 28.6365 107.432 28.8125L107.308 30.8162H102.607C102.022 30.8162 101.778 31.0854 101.778 31.7222V33.5809H106.655V35.5328H101.783V37.8886C101.783 38.5461 102.027 38.8153 102.612 38.8153H107.313L107.432 40.7983Z" fill="#C3A784"></path><path d="M119.713 39.9493C119.728 40.0785 119.714 40.2094 119.671 40.3322C119.628 40.455 119.558 40.5664 119.465 40.6582C119.373 40.7499 119.261 40.8195 119.138 40.8617C119.015 40.9039 118.884 40.9177 118.755 40.9019H117.073C116.508 40.9019 116.26 40.6379 115.99 40.1046L112.786 33.581C112.478 32.9723 112.229 32.3362 112.04 31.6809H111.833C111.918 32.328 111.959 32.9801 111.957 33.6328V40.9019H109.368V29.6668C109.351 29.5346 109.364 29.4 109.406 29.2736C109.449 29.1471 109.52 29.0321 109.614 28.9375C109.708 28.8429 109.823 28.7713 109.949 28.728C110.075 28.6848 110.209 28.6712 110.342 28.6883H111.988C112.558 28.6883 112.806 28.9575 113.07 29.4856L116.177 35.8177C116.446 36.3354 116.783 37.0913 117.067 37.7851H117.243C117.192 37.0913 117.135 36.4182 117.135 35.7141V28.6883H119.687L119.713 39.9493Z" fill="#C3A784"></path><path d="M127.655 30.8886V40.9018H124.942V30.8886H121.318V28.6882H131.331V30.8886H127.655Z" fill="#C3A784"></path><path d="M134.287 37.7127L133.397 40.902H130.632L134.163 29.377C134.215 29.1696 134.336 28.9862 134.507 28.8572C134.677 28.7281 134.887 28.6613 135.1 28.6677H137.653C137.868 28.6581 138.079 28.7237 138.251 28.8531C138.423 28.9825 138.545 29.1677 138.595 29.377L142.121 40.902H139.372L138.486 37.692L134.287 37.7127ZM136.876 31.8829C136.788 31.5101 136.685 31.1011 136.633 30.7283H136.167L135.903 31.8829L134.867 35.621H137.917L136.876 31.8829Z" fill="#C3A784"></path><path d="M146.056 37.8213C146.056 38.4581 146.32 38.7221 147.014 38.7221H151.213L151.337 40.7931C149.616 40.9469 147.887 41.0109 146.159 40.9847C144.187 40.9847 143.358 39.8871 143.358 38.396V28.6882H146.051L146.056 37.8213Z" fill="#C3A784"></path><path d="M164.721 28.885L164.493 30.9042C163.338 30.8369 162.593 30.8162 161.05 30.8162C159.279 30.8162 158.746 31.7222 158.746 34.808C158.746 37.8937 159.264 38.7946 161.05 38.7946C162.283 38.8265 163.516 38.7728 164.741 38.6341L164.969 40.6378C163.7 41.0264 162.376 41.2014 161.05 41.1555C157.275 41.1555 155.909 39.4884 155.909 34.8287C155.909 30.169 157.275 28.476 161.05 28.476C162.287 28.4353 163.523 28.573 164.721 28.885Z" fill="#C3A784"></path><path d="M174.998 40.7983C173.336 40.9743 171.223 40.9743 169.303 40.9743C167.672 40.9743 166.626 40.0165 166.605 38.5099V31.1009C166.605 29.5943 167.672 28.6365 169.303 28.6365C171.197 28.6365 173.31 28.6365 174.998 28.8125L174.879 30.8162H170.178C169.592 30.8162 169.344 31.0854 169.344 31.7222V33.5809H174.221V35.5328H169.344V37.8886C169.344 38.5461 169.592 38.8153 170.178 38.8153H174.879L174.998 40.7983Z" fill="#C3A784"></path><path d="M187.268 39.9491C187.283 40.0783 187.269 40.2092 187.226 40.332C187.183 40.4548 187.113 40.5663 187.021 40.658C186.929 40.7497 186.817 40.8193 186.694 40.8616C186.571 40.9038 186.44 40.9175 186.311 40.9018H184.628C184.058 40.9018 183.81 40.6377 183.546 40.1044L180.336 33.5809C180.03 32.9721 179.782 32.3359 179.595 31.6807H179.399C179.484 32.3279 179.525 32.98 179.523 33.6326V40.9018H176.934V29.6667C176.917 29.5342 176.931 29.3996 176.974 29.2731C177.017 29.1467 177.089 29.0319 177.183 28.9374C177.278 28.843 177.393 28.7714 177.519 28.7282C177.646 28.685 177.78 28.6713 177.913 28.6882H179.559C180.129 28.6882 180.377 28.9574 180.641 29.4855L183.748 35.8175C184.017 36.3353 184.353 37.0912 184.633 37.7849H184.835C184.778 37.0912 184.726 36.4181 184.726 35.714V28.6882H187.279L187.268 39.9491Z" fill="#C3A784"></path><path d="M195.19 30.8886V40.9018H192.498V30.8886H188.847V28.6882H198.861V30.8886H195.19Z" fill="#C3A784"></path><path d="M207.227 40.9019L206.306 37.1586C206.289 37.0043 206.241 36.855 206.165 36.7193C206.09 36.5836 205.989 36.4641 205.867 36.3678C205.745 36.2715 205.605 36.2003 205.456 36.1583C205.306 36.1163 205.15 36.1044 204.996 36.1231H203.096V40.9019H200.44V28.6883C201.989 28.5536 203.545 28.5017 205.1 28.533C208.294 28.533 209.619 29.3459 209.619 32.1572C209.619 33.8761 209.019 34.9737 207.279 35.1912V35.2792C207.721 35.3764 208.123 35.6041 208.433 35.9329C208.743 36.2616 208.947 36.6761 209.019 37.1224L210.085 40.9019H207.227ZM205.027 34.0625C206.446 34.0625 206.87 33.669 206.87 32.3229C206.87 30.9767 206.446 30.604 205.027 30.604H203.075V34.047L205.027 34.0625Z" fill="#C3A784"></path><path d="M220.114 40.7983C218.447 40.9743 216.34 40.9743 214.419 40.9743C212.793 40.9743 211.747 40.0165 211.727 38.5099V31.1009C211.727 29.5943 212.793 28.6365 214.419 28.6365C216.319 28.6365 218.426 28.6365 220.114 28.8125L219.99 30.8162H215.294C214.709 30.8162 214.46 31.0854 214.46 31.7222V33.5809H219.337V35.5328H214.46V37.8886C214.46 38.5461 214.709 38.8153 215.294 38.8153H219.99L220.114 40.7983Z" fill="#C3A784"></path></g><defs><clipPath id="clip0_607_942"><rect width="220.114" height="42.89" fill="white"></rect></clipPath></defs></svg>